<?xml version="1.0" encoding="UTF-8" standalone="no"?>
<!-- Created with Inkscape (http://www.inkscape.org/) -->

<svg
   xmlns:dc="http://purl.org/dc/elements/1.1/"
   xmlns:cc="http://creativecommons.org/ns#"
   xmlns:rdf="http://www.w3.org/1999/02/22-rdf-syntax-ns#"
   xmlns:svg="http://www.w3.org/2000/svg"
   xmlns="http://www.w3.org/2000/svg"
   xmlns:sodipodi="http://sodipodi.sourceforge.net/DTD/sodipodi-0.dtd"
   xmlns:inkscape="http://www.inkscape.org/namespaces/inkscape"
   width="85.333336"
   height="16"
   id="svg2279"
   sodipodi:version="0.32"
   inkscape:version="0.92.1 r"
   version="1.0"
   sodipodi:docname="by-sa.svg"
   inkscape:output_extension="org.inkscape.output.svg.inkscape">
  <defs
     id="defs2281">
    <clipPath
       clipPathUnits="userSpaceOnUse"
       id="clipPath3442">
      <rect
         style="fill:#000000;fill-opacity:1;stroke:none;stroke-width:0.98393101;stroke-miterlimit:4;stroke-dasharray:none;stroke-opacity:1"
         id="rect3444"
         width="21.988329"
         height="13.315949"
         x="183.46487"
         y="255.06166" />
    </clipPath>
  </defs>
  <sodipodi:namedview
     id="base"
     pagecolor="#ffffff"
     bordercolor="#999999"
     borderopacity="1"
     gridtolerance="10000"
     guidetolerance="10"
     objecttolerance="10"
     inkscape:pageopacity="0.0"
     inkscape:pageshadow="2"
     inkscape:zoom="10.5125"
     inkscape:cx="40"
     inkscape:cy="7.5"
     inkscape:document-units="px"
     inkscape:current-layer="layer1"
     width="80px"
     height="15px"
     showborder="true"
     inkscape:showpageshadow="false"
     inkscape:window-width="988"
     inkscape:window-height="522"
     inkscape:window-x="930"
     inkscape:window-y="556"
     showgrid="false"
     inkscape:window-maximized="0" />
  <metadata
     id="metadata2284">
    <rdf:RDF>
      <cc:Work
         rdf:about="">
        <dc:format>image/svg+xml</dc:format>
        <dc:type
           rdf:resource="http://purl.org/dc/dcmitype/StillImage" />
      </cc:Work>
    </rdf:RDF>
  </metadata>
  <g
     inkscape:label="Layer 1"
     inkscape:groupmode="layer"
     id="layer1">
    <g
       id="BY-SA"
       transform="matrix(0.9875019,0,0,0.9333518,-345.49402,-380.59934)">
      <g
         id="g3747"
         transform="translate(168.53333,154.66667)">
        <rect
           style="fill:#ffffff;fill-opacity:1;stroke:#000000;stroke-width:1.11105883;stroke-miterlimit:4;stroke-dasharray:none;stroke-opacity:1"
           id="rect3749"
           width="85.333336"
           height="16"
           x="181.86667"
           y="253.71967" />
        <rect
           y="255.31966"
           x="183.46666"
           height="12.8"
           width="82.133331"
           id="rect3751"
           style="fill:#000000;fill-opacity:1;stroke:none;stroke-width:0.98393101;stroke-miterlimit:4;stroke-dasharray:none;stroke-opacity:1" />
        <path
           style="fill:#abb1aa;fill-opacity:1;stroke:none;stroke-width:1.06666672;stroke-miterlimit:4;stroke-dasharray:none;stroke-opacity:0.46913578"
           d="m 183.46662,255.33339 v 12.8 h 21.69044 c 1.39589,-1.867 2.33789,-4.03678 2.33789,-6.4 0,-2.34746 -0.92579,-4.54096 -2.30456,-6.4 z"
           id="path3753"
           sodipodi:nodetypes="cccscc"
           inkscape:connector-curvature="0" />
        <g
           id="g3755"
           transform="matrix(0.9612533,0,0,0.9612533,7.289767,10.140799)"
           clip-path="url(#clipPath3442)">
          <path
             id="path3757"
             cx="296.35416"
             ry="22.939548"
             cy="264.3577"
             type="arc"
             rx="22.939548"
             d="m 202.73511,261.71953 c 0.002,4.15146 -3.36097,7.51857 -7.51214,7.52125 -4.15119,0.002 -7.51884,-3.36072 -7.52125,-7.51214 0,-0.003 0,-0.006 0,-0.01 -0.002,-4.15146 3.36096,-7.51857 7.51215,-7.52099 4.15172,-0.002 7.51883,3.36072 7.52124,7.51218 0,0.002 0,0.005 0,0.009 z"
             style="opacity:1;fill:#ffffff;stroke-width:1.06666672"
             inkscape:connector-curvature="0" />
          <path
             d="m 201.32881,255.59708 c 1.66685,1.66683 2.5004,3.70819 2.5004,6.12245 0,2.41478 -0.81911,4.43421 -2.45732,6.05823 -1.73854,1.71046 -3.79328,2.56541 -6.16419,2.56541 -2.34229,0 -4.36144,-0.848 -6.05691,-2.54398 -1.69573,-1.69574 -2.54347,-3.72211 -2.54347,-6.07966 0,-2.35702 0.84774,-4.39784 2.54347,-6.12245 1.6524,-1.66737 3.67155,-2.50093 6.05691,-2.50093 2.41427,0 4.45429,0.83355 6.12111,2.50093 z m -11.05582,1.12137 c -1.40922,1.42342 -2.11358,3.09079 -2.11358,5.00346 0,1.91216 0.6974,3.56536 2.09192,4.95962 1.39477,1.39477 3.0552,2.0919 4.98179,2.0919 1.9266,0 3.60118,-0.70408 5.0246,-2.11304 1.35145,-1.30866 2.02744,-2.95408 2.02744,-4.93848 0,-1.96939 -0.68696,-3.64101 -2.06008,-5.01413 -1.37286,-1.37286 -3.03675,-2.05957 -4.99196,-2.05957 -1.95521,1e-5 -3.60894,0.69019 -4.96013,2.07024 z m 3.70846,4.16218 c -0.21534,-0.46948 -0.53767,-0.70436 -0.96757,-0.70436 -0.75999,0 -1.13985,0.51174 -1.13985,1.53471 0,1.02319 0.37986,1.53441 1.13985,1.53441 0.50185,0 0.86031,-0.24904 1.07539,-0.74821 l 1.05344,0.56096 c -0.50212,0.89214 -1.25541,1.33832 -2.2599,1.33832 -0.77469,0 -1.39531,-0.23754 -1.86132,-0.7121 -0.4668,-0.47508 -0.69953,-1.12994 -0.69953,-1.96483 0,-0.82019 0.24022,-1.47131 0.72093,-1.9536 0.48072,-0.48232 1.07938,-0.72337 1.79711,-0.72337 1.06174,0 1.82198,0.4184 2.28157,1.25435 z m 4.95613,0 c -0.21562,-0.46948 -0.53153,-0.70436 -0.94807,-0.70436 -0.77523,0 -1.16312,0.51174 -1.16312,1.53471 0,1.02319 0.38789,1.53441 1.16312,1.53441 0.50267,0 0.85469,-0.24904 1.05561,-0.74821 l 1.07698,0.56096 c -0.50132,0.89214 -1.25356,1.33832 -2.25617,1.33832 -0.77363,0 -1.39291,-0.23754 -1.85864,-0.7121 -0.46493,-0.47508 -0.69791,-1.12994 -0.69791,-1.96483 0,-0.82019 0.23645,-1.47131 0.70915,-1.9536 0.47241,-0.48232 1.07378,-0.72337 1.80462,-0.72337 1.05986,0 1.81904,0.4184 2.27701,1.25435 z"
             id="path3759"
             style="opacity:1;stroke-width:1.06666672"
             inkscape:connector-curvature="0" />
        </g>
      </g>
      <path
         id="text3761"
         d="m 381.24768,415.66402 c 0.26185,0 0.46038,-0.0572 0.59563,-0.17147 0.13523,-0.11431 0.20284,-0.28291 0.20286,-0.50583 -2e-5,-0.22004 -0.0676,-0.38722 -0.20286,-0.50154 -0.13525,-0.11716 -0.33378,-0.17574 -0.59563,-0.17575 h -0.91932 v 1.35459 h 0.91932 m 0.0561,2.79919 c 0.33378,0 0.5841,-0.07 0.751,-0.21004 0.16976,-0.14003 0.25465,-0.35151 0.25465,-0.63444 0,-0.27719 -0.0834,-0.48438 -0.25034,-0.62156 -0.16688,-0.14003 -0.41865,-0.21004 -0.75531,-0.21004 h -0.97543 v 1.67608 h 0.97543 m 1.54516,-2.30194 c 0.35679,0.10293 0.63301,0.29293 0.82869,0.57012 0.19565,0.27722 0.29349,0.61729 0.2935,1.02024 -1e-5,0.61729 -0.21007,1.07738 -0.63016,1.38031 -0.42009,0.30292 -1.05888,0.45439 -1.91634,0.45439 h -2.75796 v -6.4 h 2.49469 c 0.89485,0 1.54227,0.13431 1.94222,0.40294 0.40283,0.26863 0.60425,0.69873 0.60425,1.29029 0,0.3115 -0.0734,0.57727 -0.22011,0.79733 -0.14675,0.21718 -0.35968,0.37864 -0.63878,0.48438 m 0.97767,-2.97494 h 1.81707 l 1.46747,2.2805 1.46745,-2.2805 H 390.4 l -2.45585,3.70368 v 2.69632 h -1.66168 v -2.69632 l -2.45585,-3.70368 m 5.67564,3.24929 h 2.7105 v 1.24742 h -2.7105 v -1.24742 m 8.49404,-3.04783 v 1.3546 c -0.35392,-0.15718 -0.69921,-0.27578 -1.03585,-0.3558 -0.33666,-0.08 -0.65463,-0.12003 -0.95386,-0.12003 -0.39709,0 -0.69057,0.0543 -0.88048,0.16289 -0.18992,0.10861 -0.28486,0.27722 -0.28486,0.50584 0,0.17147 0.0632,0.30579 0.1899,0.40294 0.12949,0.0943 0.36255,0.17575 0.69921,0.24434 l 0.70784,0.14145 c 0.71646,0.1429 1.22576,0.3601 1.52788,0.65159 0.30212,0.29149 0.45318,0.70587 0.45319,1.24312 -10e-6,0.70589 -0.21148,1.23171 -0.63446,1.5775 -0.42011,0.34294 -1.0632,0.5144 -1.92929,0.5144 -0.40859,0 -0.81861,-0.0386 -1.23007,-0.11574 -0.41148,-0.0771 -0.82294,-0.19148 -1.2344,-0.34293 v -1.39317 c 0.41146,0.2172 0.80853,0.38152 1.19123,0.49296 0.38557,0.1086 0.75675,0.16291 1.11355,0.16291 0.36255,0 0.64021,-0.0601 0.833,-0.18005 0.19278,-0.12002 0.28918,-0.2915 0.28918,-0.5144 0,-0.20004 -0.0661,-0.35436 -0.19853,-0.46296 -0.1295,-0.10859 -0.3899,-0.20576 -0.78122,-0.29149 l -0.64309,-0.14146 c -0.64454,-0.13717 -1.11643,-0.3558 -1.41568,-0.65586 -0.29638,-0.30007 -0.44456,-0.70444 -0.44456,-1.21313 0,-0.63727 0.20717,-1.12738 0.62153,-1.47033 0.41433,-0.34293 1.00995,-0.5144 1.78685,-0.5144 0.35392,0 0.7179,0.0271 1.09196,0.0815 0.37405,0.0514 0.76106,0.13003 1.16103,0.23576 m 5.79648,5.03255 h -2.59827 l -0.41003,1.16599 h -1.67031 l 2.38678,-6.4 h 1.98108 l 2.38678,6.4 h -1.67031 l -0.40572,-1.16599 m -2.18393,-1.1874 h 1.76527 l -0.88047,-2.54628 -0.8848,2.54628"
         style="font-style:normal;font-weight:bold;font-size:8.25858784px;font-family:'Bitstream Vera Sans';fill:#ffffff;fill-opacity:1;stroke:none;stroke-width:1.06666672px;stroke-linecap:butt;stroke-linejoin:miter;stroke-opacity:1"
         inkscape:connector-curvature="0" />
    </g>
  </g>
</svg>
